<?xml version="1.0" encoding="UTF-8" standalone="no"?>
<svg
   width="48"
   height="48"
   viewBox="0 0 48 48"
   version="1.1"
   id="svg1"
   sodipodi:docname="fluent--bot-48-filled.svg"
   inkscape:version="1.4.2 (ebf0e940d0, 2025-05-08)"
   xmlns:inkscape="http://www.inkscape.org/namespaces/inkscape"
   xmlns:sodipodi="http://sodipodi.sourceforge.net/DTD/sodipodi-0.dtd"
   xmlns="http://www.w3.org/2000/svg"
   xmlns:svg="http://www.w3.org/2000/svg">
  <defs
     id="defs1" />
  <sodipodi:namedview
     id="namedview1"
     pagecolor="#000000"
     bordercolor="#000000"
     borderopacity="0.25"
     inkscape:showpageshadow="2"
     inkscape:pageopacity="0.0"
     inkscape:pagecheckerboard="0"
     inkscape:deskcolor="#d1d1d1"
     inkscape:zoom="10.229167"
     inkscape:cx="24.04888"
     inkscape:cy="24"
     inkscape:window-width="1366"
     inkscape:window-height="702"
     inkscape:window-x="0"
     inkscape:window-y="0"
     inkscape:window-maximized="1"
     inkscape:current-layer="svg1" />
  <path
     fill="currentColor"
     d="M25.25 5.25a1.25 1.25 0 1 0-2.5 0V7h-7.5A4.25 4.25 0 0 0 11 11.25v8.5A4.25 4.25 0 0 0 15.25 24h17.5A4.25 4.25 0 0 0 37 19.75v-8.5A4.25 4.25 0 0 0 32.75 7h-7.5zM19 18a2.5 2.5 0 1 1 0-5a2.5 2.5 0 0 1 0 5m12.5-2.5a2.5 2.5 0 1 1-5 0a2.5 2.5 0 0 1 5 0M8 32.25A4.25 4.25 0 0 1 12.25 28h23.5A4.25 4.25 0 0 1 40 32.25v1.05c0 3.154-1.535 5.888-4.336 7.785C32.9 42.957 28.94 44 24 44s-8.9-1.043-11.664-2.915C9.535 39.188 8 36.454 8 33.3z"
     id="path1"
     style="fill:#ffffff;fill-opacity:1;stroke:none" />
</svg>
